HIERARCHY
ROOT hip
{
  OFFSET 0 0 0
  CHANNELS 6 Xposition Yposition Zposition Zrotation Yrotation Xrotation
  JOINT abdomen
  {
    OFFSET 0 20.6881 -0.73152
    CHANNELS 3 Zrotation Xrotation Yrotation
    JOINT chest
    {
      OFFSET 0 11.7043 -0.48768
      CHANNELS 3 Zrotation Xrotation Yrotation
      JOINT neck
      {
        OFFSET 0 22.1894 -2.19456
        CHANNELS 3 Zrotation Xrotation Yrotation
        JOINT head
        {
          OFFSET -0.24384 7.07133 1.2192
          CHANNELS 3 Zrotation Xrotation Yrotation
          JOINT leftEye
          {
            OFFSET 4.14528 8.04674 8.04672
            CHANNELS 3 Zrotation Xrotation Yrotation
            End Site
            {
              OFFSET 1 0 0
            }
          }
          JOINT rightEye
          {
            OFFSET -3.6576 8.04674 8.04672
            CHANNELS 3 Zrotation Xrotation Yrotation
            End Site
            {
              OFFSET 1 0 0
            }
          }
        }
      }
      JOINT rCollar
      {
        OFFSET -2.68224 19.2634 -4.8768
        CHANNELS 3 Zrotation Xrotation Yrotation
        JOINT rShldr
        {
          OFFSET -8.77824 -1.95073 1.46304
          CHANNELS 3 Zrotation Xrotation Yrotation
          JOINT rForeArm
          {
            OFFSET -28.1742 -1.7115 0.48768
            CHANNELS 3 Zrotation Xrotation Yrotation
            JOINT rHand
            {
              OFFSET -22.5879 0.773209 7.07136
              CHANNELS 3 Zrotation Xrotation Yrotation
              JOINT rThumb1
              {
                OFFSET -1.2192 -0.487915 3.41376
                CHANNELS 3 Zrotation Xrotation Yrotation
                JOINT rThumb2
                {
                  OFFSET -3.37035 -0.52449 3.41376
                  CHANNELS 3 Zrotation Xrotation Yrotation
                  End Site
                  {
                    OFFSET -1.78271 -1.18214 1.43049
                  }
                }
              }
              JOINT rIndex1
              {
                OFFSET -7.75947 0.938293 5.60832
                CHANNELS 3 Zrotation Xrotation Yrotation
                JOINT rIndex2
                {
                  OFFSET -2.54057 -0.884171 1.56538
                  CHANNELS 3 Zrotation Xrotation Yrotation
                  End Site
                  {
                    OFFSET -1.62519 -0.234802 1.16502
                  }
                }
              }
              JOINT rMid1
              {
                OFFSET -8.24714 1.18213 3.41376
                CHANNELS 3 Zrotation Xrotation Yrotation
                JOINT rMid2
                {
                  OFFSET -3.10165 -0.590103 1.0647
                  CHANNELS 3 Zrotation Xrotation Yrotation
                  End Site
                  {
                    OFFSET -2.48547 -0.328903 0.83742
                  }
                }
              }
              JOINT rRing1
              {
                OFFSET -8.82822 0.546677 1.51678
                CHANNELS 3 Zrotation Xrotation Yrotation
                JOINT rRing2
                {
                  OFFSET -2.60934 -0.819778 -0.0198488
                  CHANNELS 3 Zrotation Xrotation Yrotation
                  End Site
                  {
                    OFFSET -2.33842 -0.294052 0.168128
                  }
                }
              }
              JOINT rPinky1
              {
                OFFSET -8.27202 -0.0477905 -0.4584
                CHANNELS 3 Zrotation Xrotation Yrotation
                JOINT rPinky2
                {
                  OFFSET -1.82734 -0.647385 -0.700984
                  CHANNELS 3 Zrotation Xrotation Yrotation
                  End Site
                  {
                    OFFSET -1.69225 -0.51767 -0.607171
                  }
                }
              }
            }
          }
        }
      }
      JOINT lCollar
      {
        OFFSET 2.68224 19.2634 -4.8768
        CHANNELS 3 Zrotation Xrotation Yrotation
        JOINT lShldr
        {
          OFFSET 8.77824 -1.95073 1.46304
          CHANNELS 3 Zrotation Xrotation Yrotation
          JOINT lForeArm
          {
            OFFSET 28.1742 -1.7115 0.48768
            CHANNELS 3 Zrotation Xrotation Yrotation
            JOINT lHand
            {
              OFFSET 22.5879 0.773209 7.07136
              CHANNELS 3 Zrotation Xrotation Yrotation
              JOINT lThumb1
              {
                OFFSET 1.2192 -0.487915 3.41376
                CHANNELS 3 Zrotation Xrotation Yrotation
                JOINT lThumb2
                {
                  OFFSET 3.37035 -0.52449 3.41376
                  CHANNELS 3 Zrotation Xrotation Yrotation
                  End Site
                  {
                    OFFSET 1.78271 -1.18214 1.43049
                  }
                }
              }
              JOINT lIndex1
              {
                OFFSET 7.75947 0.938293 5.60832
                CHANNELS 3 Zrotation Xrotation Yrotation
                JOINT lIndex2
                {
                  OFFSET 2.54057 -0.884171 1.56538
                  CHANNELS 3 Zrotation Xrotation Yrotation
                  End Site
                  {
                    OFFSET 1.62519 -0.234802 1.16502
                  }
                }
              }
              JOINT lMid1
              {
                OFFSET 8.24714 1.18213 3.41376
                CHANNELS 3 Zrotation Xrotation Yrotation
                JOINT lMid2
                {
                  OFFSET 3.10165 -0.590103 1.0647
                  CHANNELS 3 Zrotation Xrotation Yrotation
                  End Site
                  {
                    OFFSET 2.48547 -0.328903 0.83742
                  }
                }
              }
              JOINT lRing1
              {
                OFFSET 8.82822 0.546677 1.51678
                CHANNELS 3 Zrotation Xrotation Yrotation
                JOINT lRing2
                {
                  OFFSET 2.60934 -0.819778 -0.0198488
                  CHANNELS 3 Zrotation Xrotation Yrotation
                  End Site
                  {
                    OFFSET 2.33842 -0.294052 0.168128
                  }
                }
              }
              JOINT lPinky1
              {
                OFFSET 8.27202 -0.0477905 -0.4584
                CHANNELS 3 Zrotation Xrotation Yrotation
                JOINT lPinky2
                {
                  OFFSET 1.82734 -0.647385 -0.700984
                  CHANNELS 3 Zrotation Xrotation Yrotation
                  End Site
                  {
                    OFFSET 1.69225 -0.51767 -0.607171
                  }
                }
              }
            }
          }
        }
      }
    }
  }
  JOINT rButtock
  {
    OFFSET -8.77824 4.35084 1.2192
    CHANNELS 3 Zrotation Xrotation Yrotation
    JOINT rThigh
    {
      OFFSET 0 -1.70687 -2.19456
      CHANNELS 3 Zrotation Xrotation Yrotation
      JOINT rShin
      {
        OFFSET 0 -36.8199 0.73152
        CHANNELS 3 Zrotation Xrotation Yrotation
        JOINT rFoot
        {
          OFFSET 0.73152 -45.1104 -5.12064
          CHANNELS 3 Zrotation Xrotation Yrotation
          End Site
          {
            OFFSET -1.1221 -3.69964 12.103
          }
        }
      }
    }
  }
  JOINT lButtock
  {
    OFFSET 8.77824 4.35084 1.2192
    CHANNELS 3 Zrotation Xrotation Yrotation
    JOINT lThigh
    {
      OFFSET 0 -1.70687 -2.19456
      CHANNELS 3 Zrotation Xrotation Yrotation
      JOINT lShin
      {
        OFFSET 0 -36.8199 0.73152
        CHANNELS 3 Zrotation Xrotation Yrotation
        JOINT lFoot
        {
          OFFSET -0.73152 -45.1104 -5.12064
          CHANNELS 3 Zrotation Xrotation Yrotation
          End Site
          {
            OFFSET 1.1221 -3.69964 12.103
          }
        }
      }
    }
  }
}
MOTION
Frames:	5
Frame Time:	0.03333
0.0 0.0 0.0 0.0 0.0 0.0 0.0 0.0 0.0 0.0 0.0 0.0 0.0 0.0 0.0 0.0 0.0 0.0 0.0 0.0 0.0 0.0 0.0 0.0 0.0 0.0 0.0 0.0 0.0 0.0 0.0 0.0 0.0 0.0 0.0 0.0 0.0 0.0 0.0 0.0 0.0 0.0 0.0 0.0 0.0 0.0 0.0 0.0 0.0 0.0 0.0 0.0 0.0 0.0 0.0 0.0 0.0 0.0 0.0 0.0 0.0 0.0 0.0 0.0 0.0 0.0 0.0 0.0 0.0 0.0 0.0 0.0 0.0 0.0 0.0 0.0 0.0 0.0 0.0 0.0 0.0 0.0 0.0 0.0 0.0 0.0 0.0 0.0 0.0 0.0 0.0 0.0 0.0 0.0 0.0 0.0 0.0 0.0 0.0 0.0 0.0 0.0 0.0 0.0 0.0 0.0 0.0 0.0 0.0 0.0 0.0 0.0 0.0 0.0 0.0 0.0 0.0 0.0 0.0 0.0 0.0 0.0 0.0 0.0 0.0 0.0 0.0 0.0 0.0 0.0 0.0 0.0
-0.06520000000000001 63.3158 -0.013 -0.34715 -46.615316 -0.60244 0.182738 5.060228 5.019776 -2.701331 -15.499618 168.564478 -8.106513 -20.331949 -43.207181 40.528262 34.649912 108.459666 -158.263651 14.935347 68.644535 38.789383 5.490535 15.512321 -76.555273 -47.307163 167.197695 18.967055 -22.041488 12.590677 163.911896 -8.361183 -14.425054 87.257581 -70.126153 -18.53465 -2.899276 -0.182483 28.507363 -154.376349 65.588265 -107.944152 8.2938 45.785951 -33.961798 105.534299 -44.1714 -145.498079 -26.138255 -53.791495 -125.578389 -162.587309 69.321659 42.400721 94.779573 -8.931937 -77.063321 -47.290296 17.849929 -3.225544 68.386114 6.34099 -58.951724 24.497633 40.181477 12.312081 -108.799831 -59.740981 -9.189055 3.317409 1.095409 -11.727424 -7.855158 -3.273243 -160.33917 -169.732798 -16.839648 -59.778624 -102.128974 10.242606 -48.135217 167.883011 79.760979 -125.169886 -48.689739 -41.140562 -80.769612 62.963876 47.812325 -53.296831 18.090235 4.707957 -99.451253 -18.039443 40.258599 -108.162961 -83.682866 73.812818 83.35224 43.813921 42.867472 -121.331496 -3.905341 12.594373 61.298238 133.896531 -46.875234 92.35835 -60.417103 -1.939299 -93.011934 -7.861005 61.956765 8.890967 -7.970148 0.362418 -94.261709 74.782197 17.91273 -89.966559 37.73756 -31.244714 56.169863 0.169225 47.382491 -179.726314 -4.315192 -7.020355 -34.824354 -63.094356 -30.63251 106.874544
0.8302 59.0826 1.5497 -173.235923 8.784389 -179.76698 5.976783 17.504345 -1.565389 -3.550408 -8.293894 15.039482 -8.184787 21.656762 -54.852604 49.658112 -14.802972 63.11128 1.613184 0.517205 35.550893 -45.614761 -4.037696 9.583407 -0.774954 32.824307 9.710216 50.773383 0.78355 25.405154 90.293747 -19.709752 74.849836 -143.326906 68.899563 125.21604 -177.266666 14.000395 102.8685 -39.828469 -31.03894 -7.091664 -7.830656 -23.471546 -22.871025 -152.947468 -23.535648 86.904055 -167.022278 -33.880631 143.844815 -85.642296 40.074798 73.240517 16.100451 61.015397 -18.548254 152.413938 -42.525612 164.960842 -16.641928 -38.678042 -32.186005 -56.256544 59.673766 110.950942 -17.697973 -42.275996 -4.052422 -163.102456 69.566468 113.394753 -160.411206 44.870683 -131.898901 179.297769 13.456632 -153.548824 101.523464 50.373699 -51.651112 -4.251245 -0.868254 -34.880986 -7.084787 -21.913327 19.309826 0.586494 0.110764 -20.199436 13.905052 60.664483 -2.179811 -158.835417 -9.63525 -131.959445 4.58886 -26.886224 0.540223 59.926196 -64.221089 59.676379 7.123306 42.87997 -19.864581 109.86648 -39.560319 139.821612 81.735543 16.871004 47.235856 -105.247343 42.548526 -66.895379 -28.652216 29.291586 59.221672 -76.45136 7.436636 10.983467 178.147825 79.108573 -0.0 -138.932238 29.171119 -22.214728 -8.850621 58.944576 135.654713 -90.780331 -40.789405 159.472794
1.6658 64.3528 3.6398 -171.337184 11.950535 179.873242 9.597839 19.970442 -58.596491 4.274826 -10.821388 82.354805 2.096198 22.830038 -78.684417 44.722475 -6.661768 79.644012 -8.212664 -0.282359 3.931479 -22.52793 14.728125 -65.959446 -72.681963 -78.099867 -99.126427 179.590181 10.538255 -139.536442 -13.998548 -49.021649 32.958701 -4.160889 10.899296 0.498509 -12.859428 -11.19021 -18.177259 9.13288 11.173298 22.183358 -152.669392 -5.74163 134.151663 31.468238 -71.664441 -21.86649 -1.752955 -7.347558 9.620308 -169.965188 39.207739 160.217156 -144.100331 -10.412535 -171.405423 13.528179 30.099488 8.487311 -133.516142 -45.209981 -128.609644 -129.92349 41.136348 -143.523249 156.361098 -8.261856 -145.4755 51.10167 22.293418 -13.003607 -153.23543 51.251513 128.148968 12.931966 41.697877 -13.883924 167.273427 15.776091 -102.687026 113.998186 30.926431 -51.947682 157.94535 -13.044562 -129.433864 133.235652 -21.783658 -102.543681 128.542695 -65.594364 158.311905 136.917512 -46.286539 -142.793664 79.528134 66.580178 -86.782051 131.157946 -21.745901 -175.108528 -152.803745 82.20253 134.306067 -7.012841 -63.609736 -29.047566 101.546395 61.230281 79.847221 130.432518 71.286281 -48.683465 -47.269264 -11.962459 -164.535865 146.459611 81.612306 127.035416 49.181321 28.457522 27.611808 -49.433236 -59.823167 -180.0 -36.790543 -55.339956 -148.946154 -9.152584 29.14462 -67.255854
2.3619999999999997 63.775800000000004 5.3601 -170.845247 10.18466 -178.624307 9.306482 15.913494 -2.196806 -4.980753 -6.194882 26.362137 3.296447 14.203776 -20.824295 14.617385 -31.629991 20.876529 -16.764629 -0.246541 1.673029 33.469326 -15.53238 -48.796871 -59.744558 -76.731073 -82.726795 -86.852274 -38.832023 -93.644688 0.533447 8.914645 -79.966185 161.994988 -34.785096 142.197013 -9.405067 16.080381 -13.087754 -141.855163 -32.164128 73.047568 -151.242729 -26.551577 140.527348 35.339967 -10.669903 -30.07034 -163.094328 -7.015448 140.182783 7.423116 0.066497 8.536301 -145.529902 12.914672 170.574716 -138.06222 -5.145893 165.155813 -2.996642 0.598901 17.803158 -90.404787 -65.901849 -78.34072 147.341707 10.905174 -146.286137 42.694072 -10.730974 -23.998505 -6.406011 9.930699 66.87773 -169.66011 -15.681048 -151.701223 3.194707 -4.214198 19.546911 149.691303 -44.637572 -99.904312 1.113201 3.129855 2.150428 -168.166134 7.462523 -150.862721 3.445544 37.139415 3.057181 -170.469176 -23.663463 -144.517432 98.122419 61.805985 -88.459495 -11.932885 45.527547 -43.865705 -34.641719 74.736138 32.692369 -104.980285 -68.092309 -120.141716 5.861563 -17.868893 7.448753 -17.149864 23.133114 -0.0 2.234691 53.003762 -144.00666 178.479273 36.40903 -92.805509 -163.13823 65.28449 -6.510303 -152.420673 8.135678 -3.640535 -29.981073 63.201487 -66.301394 144.254125 -21.474691 -111.715368
